<?xml version="1.0" encoding="utf-8"?>
<!-- Generator: Adobe Illustrator 22.0.1, SVG Export Plug-In . SVG Version: 6.00 Build 0)  -->
<svg version="1.1" id="Layer_1" xmlns="http://www.w3.org/2000/svg" xmlns:xlink="http://www.w3.org/1999/xlink" x="0px" y="0px"
	 viewBox="0 0 85.7 52.2" style="enable-background:new 0 0 85.7 52.2;" xml:space="preserve">
<style type="text/css">
	.st0{clip-path:url(#SVGID_2_);}
	.st1{fill:#5A5A5A;}
</style>
<title>sky-gray</title>
<g>
	<defs>
		<path id="SVGID_1_" d="M11.1,11.3c-6.4,0.7-9.6,4.5-9.6,9.1c0,3.8,2.7,7.3,7.9,8.3l6.2,1.2c2.2,0.4,3.4,1,3.4,2.2
			c0,0.9-0.9,1.9-3.8,1.9c-2.6,0-6.2-0.4-8.4-0.4s-4.5,1-4.5,5.2c0,0.6,0.1,1.1,0.2,1.7c3.2,0.4,10,1,14.7,0.5
			c6.5-0.7,9.7-4.3,9.7-9.2c0-4.2-2.6-7.7-8.6-8.8l-5.9-1c-1.9-0.3-3.1-0.8-3.1-1.8s1.2-1.8,4.2-1.8s5.5,0.3,7.2,0.3
			c2.2,0,4.4-0.9,4.4-5.2c0-0.6,0-1.1-0.2-1.7c-3.2-0.4-6.4-0.6-9.6-0.7C13.9,11.1,12.5,11.2,11.1,11.3 M47.7,14.6l-9.9,10.8
			l7.9,12.5c1.3,2.3,3.9,3.6,6.5,3.4c1.6,0,3.1-0.3,4.5-0.8L47.3,26l6.7-7.1l11.1,17.4l-6.7,14.2c1.2,0.5,2.5,0.8,3.8,0.8
			c3,0.1,4.6-1.1,5.8-3.7L83.8,12c-1-0.5-2.2-0.7-3.3-0.8c-2.1,0-4.8,0.4-6.6,4.6L68.8,28L58.7,11.5c-1.1-0.3-2.3-0.5-3.4-0.5
			C51.7,11,49.7,12.3,47.7,14.6 M35.5,0.9c-5.2,0-6.1,2.8-6.1,5.4v34.8c0.6,0.1,1.2,0.1,1.8,0.1c5.1,0,6.1-1.5,6.1-4.1v-36
			C36.8,0.9,36.2,0.9,35.5,0.9z"/>
	</defs>
	<clipPath id="SVGID_2_">
		<use xlink:href="#SVGID_1_"  style="overflow:visible;"/>
	</clipPath>
	<g class="st0">
		<g>
			<g>
				<rect y="0" class="st1" width="85.7" height="52.2"/>
			</g>
		</g>
	</g>
</g>
</svg>
