<?xml version="1.0" encoding="utf-8"?>
<!-- Generator: Adobe Illustrator 19.0.0, SVG Export Plug-In . SVG Version: 6.00 Build 0)  -->
<svg version="1.1" id="Capa_1" xmlns="http://www.w3.org/2000/svg" xmlns:xlink="http://www.w3.org/1999/xlink" x="0px" y="0px"
	 viewBox="0 0 595.5 595.5" style="enable-background:new 0 0 595.5 595.5;" xml:space="preserve">
<path style="fill:#0094D3;" d="M86.8,240.8h421.9c-2.4-15.5-8.4-31.6-16.4-46.7H103.1C95.2,209.2,89.2,225.3,86.8,240.8z"/>
<path style="fill:#FBDE13;" d="M508.7,240.8h-44.4v174.9c26.9-51.3,45.6-107.9,45.6-160.3c0-12.1-2.7-25.1-7.3-38h0
	C505.4,225.3,507.5,233.1,508.7,240.8z"/>
<path style="fill:#E1221C;" d="M417.3,489.7c16.9-22.3,33.1-47.4,47-74V240.8h-47V489.7z"/>
<path style="fill:#FBDE13;" d="M370.3,542.8c15.6-14.8,31.6-32.8,47-53.1V240.8h-47V542.8z"/>
<path style="fill:#FBDE13;" d="M180.1,492.1c15.8,20.6,32.2,38.8,48.1,53.4V240.8h-48.1V492.1z"/>
<path style="fill:#E1221C;" d="M133.1,419.3c14,26.2,30.2,50.9,47,72.9V240.8h-47V419.3z"/>
<path style="fill:#FBDE13;" d="M86.1,270.4c3.2,49.3,21.6,101.4,47,148.8V240.8H86.8c1.2-7.7,3.3-15.5,6.1-23.4h0
	c-3.4,9.7-5.8,19.4-6.8,28.8V270.4z"/>
<g>
	<path style="fill:#FBDE13;" d="M297.8,282.3c9,0,17.7,1.8,25.6,5v-46.5h-47v44.9C283.1,283.5,290.3,282.3,297.8,282.3z"/>
	<path style="fill:#FBDE13;" d="M297.8,419.2c-7.5,0-14.7-1.2-21.4-3.4v163.7c7.8,3.4,15.1,5.2,21.4,5.2c7.5,0,16.1-2.5,25.6-7.2
		V414.2C315.4,417.4,306.8,419.2,297.8,419.2z"/>
</g>
<path style="fill:#E1221C;" d="M323.3,240.8v46.5c25.1,10.1,42.9,34.7,42.9,63.5s-17.7,53.3-42.9,63.5v163.3c14.3-7,30.4-19,47-34.8
	v-302H323.3z"/>
<path style="fill:#E1221C;" d="M229.3,350.8c0-30.3,19.7-56,47-65v-44.9h-48.1v304.8c17.2,15.8,33.7,27.6,48.1,33.9V415.7
	C249,406.7,229.3,381.1,229.3,350.8z"/>
<circle style="fill:#A43316;" cx="297.8" cy="350.8" r="68.4"/>
<circle style="fill:#D48E0A;" cx="297.8" cy="350.8" r="63.9"/>
<path style="fill:#A43316;" d="M345.7,356.2l0-1.3c0-26.5-8.9-42.8-19.4-48c0.2-0.4,0.7-1.1,1.8-2c2.4-2,6.4-3.7,10.1-3.6
	c-1.2-0.9-2.3-1.8-3.6-2.7c-3.4,0.7-6.4,2.4-8.4,4c-1,0.8-2.2,1.9-2.7,3.2c-1.6-0.5-3.3-0.8-4.9-0.8c-8.5,0-13.5,8.7-15.9,12.9
	c-0.4,0.7-0.7,1.2-0.9,1.5c-1.5,2.1-5.8,3.2-12.6,3.2c-7.4,0-9.9-1.5-9.9-6c0-7.5,10.1-24.4,24.2-29.4c-1.9-0.2-3.8-0.3-5.7-0.3
	c-0.2,0-0.5,0-0.7,0c-12.5,7.3-20.7,22.3-20.7,29.7c0,0.7,0.1,1.3,0.2,1.9c-2.4,1.3-7.5,3.9-11.5,3.9c-9.2,0-16.4-7.1-18.5-9.8
	c-0.6,0.8-1.2,1.7-1.8,2.6c3.4,4.1,11.1,10.2,20.3,10.2c4.4,0,9.6-2.4,12.5-4c2.5,4.2,8.4,4.2,11.7,4.2c7,0,11.5-1.1,14-3.3
	c3,2.3,10.8,9.5,10.8,21.2c0,7.2-0.2,12.4-2.1,13.6c-2.2,1.3-17.9,3.3-28,3.3c-27.1,0-47.6-10-49.9-11.6c0,0.7-0.1,1.3-0.1,2
	c0,0.5,0,0.9,0,1.4c6.6,3.5,26.1,11.2,49.9,11.2c9.1,0,25-1.8,29-3.5c1.2,2.5,3.2,9,3.2,14.2c0,7.5-2.9,17.3-16.6,21.6l-0.1,0
	c-3.2-1.9-11.5-5.3-17.6-5.3c-4.3,0-9.2,1.8-11.9,3.9c-3-2.5-11.7-9.4-18-9.4c-2.5,0-5.6,0.7-7.3,1.2c0.6,0.9,1.2,1.8,1.8,2.6
	c1.6-0.4,3.8-0.8,5.5-0.8c5.1,0,13,6.1,16.1,8.7c-0.1,0.3-0.2,0.5-0.2,0.8c0,2.3,2.5,8.1,6,12.6c1.8,0.7,3.6,1.4,5.4,1.9l0.3-0.3
	c-4.6-3.6-8.5-11.7-8.7-14c0.7-1.2,5.7-4.1,11-4.1c5.3,0,13,3.1,16,4.8c0.2,3.6,6.5,10.9,13.2,15c1.5-0.3,2.9-0.7,4.3-1.1
	c-0.1,0-0.2-0.1-0.3-0.1C345.9,396.8,345.7,367.4,345.7,356.2z M311.7,410.2c-5.7-3.8-10.4-9.8-11-11.8c15.1-5,18.3-16,18.3-24.4
	c0-5.4-2.1-13.1-3.9-16.3c1.7-2.7,1.8-7.5,1.8-14.4c0-13-8.6-21-12-23.6c0.1-0.2,0.2-0.3,0.3-0.5c2.1-3.7,6.6-11.4,13.3-11.4
	c11.7,0,24.1,16.4,24.1,46.9l0,1.3C342.7,367.2,342.9,396.1,311.7,410.2z"/>
<path d="M370.2,13.7c-7,0-14.6,19.8-34,19.8c-11.2,0-17.7-8.2-18.4-9c0-3.8,5.3-11.8,5.3-19.2c0-1.9-0.8-5.2-6.9-5.2
	s-9.6,5-10.2,5.8c-0.5,0.8-2.8-1-8.3-1c-5.4,0-7.7,1.9-8.3,1c-0.6-0.9-4-5.8-10.2-5.8c-6.2,0-6.9,3.3-6.9,5.2
	c0,7.4,5.3,15.4,5.3,19.2c-0.7,0.8-7.1,9-18.4,9c-19.4,0-27-19.8-34-19.8c-21.5,0-152,90-152,232.3c0,172.5,160.7,349.5,224.4,349.5
	c63.8,0,224.4-177,224.4-349.5C522.2,103.7,391.7,13.7,370.2,13.7z M375.3,23.9c3.9,0,48.1,49.6,45.1,89.1
	c-5.7-50.6-45.9-86-45.9-88.3C374.5,24.1,375,23.9,375.3,23.9z M222.1,23.9c0.3,0,0.8,0.2,0.8,0.8c0,2.3-40.2,37.7-45.9,88.3
	C174,73.6,218.3,23.9,222.1,23.9z M297.8,584.7C234,584.7,85.6,403,85.6,255.4c0-55,55.5-127.1,86.8-127.1c2.9,0,6.8,0.9,6.8,0.9
	s12.5-10.4,30-10.4c32.9,0,50.1,31.5,50.1,43c0,5.9-2.1,4.8-2.1,8.1c0,1.9,2.6,4.5,4.4,4.5c2.4,0,10.1-7.5,11.8-10.9
	c11,0,21.2,12.2,24.3,21.8c3.1-9.5,13.3-21.8,24.3-21.8c1.6,3.4,9.3,10.9,11.8,10.9c1.8,0,4.4-2.7,4.4-4.5c0-3.4-2.1-2.2-2.1-8.1
	c0-11.5,17.2-43,50.1-43c17.5,0,30,10.4,30,10.4s3.9-0.9,6.8-0.9c31.3,0,86.8,72.1,86.8,127.1C509.9,403,361.5,584.7,297.8,584.7z"
	/>
<path style="fill:#F4F2F2;" d="M110.4,201.9l12.4,33.5h7.9l12.4-33.5h-8.4c0,0-7.4,24.3-7.8,24.3s-7.5-24.3-7.5-24.3H110.4z"/>
<path style="fill:#F4F2F2;" d="M167.2,235.4h8.6l-13.3-33.5h-8.2l-13.3,33.5h8.3l2.8-7.4h12.5L167.2,235.4z M154.2,222.1l4.2-11.2
	l4,11.2H154.2z"/>
<path style="fill:#F4F2F2;" d="M366.7,235.4h8.6l-13.3-33.5h-8.2l-13.3,33.5h8.3l2.8-7.4H364L366.7,235.4z M353.7,222.1l4.2-11.2
	l4,11.2H353.7z"/>
<polygon style="fill:#F4F2F2;" points="180.1,201.9 180.1,235.4 206.4,235.4 206.4,228.3 188.2,228.3 188.2,201.9 "/>
<polygon style="fill:#F4F2F2;" points="213.3,201.9 213.3,235.4 239.6,235.4 239.6,228.4 221,228.4 221,220.8 237.1,220.8 
	237.1,215 221,215 221,208.6 239.6,208.6 239.6,201.9 "/>
<polygon style="fill:#F4F2F2;" points="451.2,201.9 451.2,235.4 458.9,235.4 458.9,220.8 474.9,220.8 474.9,215 458.9,215 
	458.9,208.6 477.4,208.6 477.4,201.9 "/>
<polygon style="fill:#F4F2F2;" points="248.7,201.9 248.7,235.4 255.8,235.4 255.8,213.5 270.2,235.4 278.4,235.4 278.4,201.9 
	270.6,201.9 270.6,224.6 256.8,201.9 "/>
<path style="fill:#F4F2F2;" d="M310,213.9h8.8c0-7.1-8.1-12-15.9-12c-11,0-16.7,9.8-16.7,17.7c0,9.6,6.2,15.8,16.1,15.8
	c11.8,0,16.5-6.5,16.5-12.2h-8.9c0,1.9-1,6.8-6.8,6.8s-9-5-9-10.5c0-5.5,3.1-11.5,9.2-11.5C308.2,208,310,210.7,310,213.9z"/>
<path style="fill:#F4F2F2;" d="M417.7,213.9h8.8c0-7.1-8.1-12-15.9-12c-11,0-16.7,9.8-16.7,17.7c0,9.6,6.2,15.8,16.1,15.8
	c11.8,0,16.5-6.5,16.5-12.2h-8.9c0,1.9-1,6.8-6.8,6.8c-5.9,0-9-5-9-10.5c0-5.5,3.1-11.5,9.2-11.5C415.9,208,417.7,210.7,417.7,213.9
	z"/>
<rect x="326.9" y="201.9" style="fill:#F4F2F2;" width="8.1" height="33.5"/>
<rect x="434.1" y="227.4" style="fill:#F4F2F2;" width="8.6" height="7.9"/>
<rect x="477" y="227.4" style="fill:#F4F2F2;" width="8.6" height="7.9"/>
</svg>
